<svg width="636" height="636" viewBox="0 0 636 636" fill="none" xmlns="http://www.w3.org/2000/svg">
<path d="M182.738 592.709L312.674 527.754C319.767 524.208 328.121 524.237 335.188 527.833L460.724 591.697C478.328 600.653 498.876 586.619 496.939 566.963L481.78 413.127C481.105 406.277 483.285 399.452 487.804 394.26L584.093 283.664C596.416 269.509 589.33 247.329 571.083 242.941L429.146 208.806C422.078 207.106 416.099 202.413 412.769 195.951L344.741 63.9434C335.719 46.4371 310.939 45.7514 300.963 62.7321L222.079 197.007C218.653 202.838 213.012 207.032 206.441 208.633L66.4233 242.75C48.1206 247.209 41.1389 269.542 53.6423 283.632L152.009 394.485C156.496 399.541 158.744 406.198 158.241 412.939L146.629 568.486C145.184 587.838 165.38 601.386 182.738 592.709Z" stroke="black" stroke-width="54"/>
</svg>
